<mxfile host="app.diagrams.net" modified="2023-06-07T14:35:56.749Z" agent="Mozilla/5.0 (Windows NT 10.0; Win64; x64) AppleWebKit/537.36 (KHTML, like Gecko) Chrome/114.0.0.0 Safari/537.36 Edg/114.0.1823.37" etag="u6nPnl91ctsvvg0Df6B_" version="21.3.6" type="github">
  <diagram name="Page-1" id="5oIfzunVPPlXxzwn9oSG">
    <mxGraphModel dx="1379" dy="796" grid="1" gridSize="10" guides="1" tooltips="1" connect="1" arrows="1" fold="1" page="1" pageScale="1" pageWidth="850" pageHeight="1100" math="0" shadow="0">
      <root>
        <mxCell id="0" />
        <mxCell id="1" parent="0" />
        <mxCell id="01GzuAP-HDkEaBXjoSyX-1" value="Patient" style="rounded=0;whiteSpace=wrap;html=1;" parent="1" vertex="1">
          <mxGeometry x="220" y="180" width="160" height="90" as="geometry" />
        </mxCell>
        <mxCell id="01GzuAP-HDkEaBXjoSyX-29" style="edgeStyle=orthogonalEdgeStyle;rounded=0;orthogonalLoop=1;jettySize=auto;html=1;" parent="1" source="01GzuAP-HDkEaBXjoSyX-2" target="01GzuAP-HDkEaBXjoSyX-14" edge="1">
          <mxGeometry relative="1" as="geometry" />
        </mxCell>
        <mxCell id="01GzuAP-HDkEaBXjoSyX-2" value="Hospital" style="rounded=0;whiteSpace=wrap;html=1;" parent="1" vertex="1">
          <mxGeometry x="640" y="180" width="160" height="90" as="geometry" />
        </mxCell>
        <mxCell id="01GzuAP-HDkEaBXjoSyX-39" style="edgeStyle=orthogonalEdgeStyle;rounded=0;orthogonalLoop=1;jettySize=auto;html=1;entryX=0;entryY=0.25;entryDx=0;entryDy=0;" parent="1" source="01GzuAP-HDkEaBXjoSyX-3" target="01GzuAP-HDkEaBXjoSyX-1" edge="1">
          <mxGeometry relative="1" as="geometry" />
        </mxCell>
        <mxCell id="01GzuAP-HDkEaBXjoSyX-3" value="Gender" style="rounded=0;whiteSpace=wrap;html=1;" parent="1" vertex="1">
          <mxGeometry x="50" y="110" width="120" height="60" as="geometry" />
        </mxCell>
        <mxCell id="01GzuAP-HDkEaBXjoSyX-40" style="edgeStyle=orthogonalEdgeStyle;rounded=0;orthogonalLoop=1;jettySize=auto;html=1;entryX=0;entryY=0.5;entryDx=0;entryDy=0;" parent="1" source="01GzuAP-HDkEaBXjoSyX-4" target="01GzuAP-HDkEaBXjoSyX-1" edge="1">
          <mxGeometry relative="1" as="geometry" />
        </mxCell>
        <mxCell id="01GzuAP-HDkEaBXjoSyX-4" value="Name" style="rounded=0;whiteSpace=wrap;html=1;" parent="1" vertex="1">
          <mxGeometry x="50" y="195" width="120" height="60" as="geometry" />
        </mxCell>
        <mxCell id="01GzuAP-HDkEaBXjoSyX-41" style="edgeStyle=orthogonalEdgeStyle;rounded=0;orthogonalLoop=1;jettySize=auto;html=1;entryX=0;entryY=0.75;entryDx=0;entryDy=0;" parent="1" source="01GzuAP-HDkEaBXjoSyX-5" target="01GzuAP-HDkEaBXjoSyX-1" edge="1">
          <mxGeometry relative="1" as="geometry" />
        </mxCell>
        <mxCell id="01GzuAP-HDkEaBXjoSyX-5" value="Health Problems" style="rounded=0;whiteSpace=wrap;html=1;" parent="1" vertex="1">
          <mxGeometry x="50" y="285" width="120" height="60" as="geometry" />
        </mxCell>
        <mxCell id="01GzuAP-HDkEaBXjoSyX-44" style="edgeStyle=orthogonalEdgeStyle;rounded=0;orthogonalLoop=1;jettySize=auto;html=1;entryX=0.5;entryY=1;entryDx=0;entryDy=0;" parent="1" source="01GzuAP-HDkEaBXjoSyX-6" target="01GzuAP-HDkEaBXjoSyX-1" edge="1">
          <mxGeometry relative="1" as="geometry" />
        </mxCell>
        <mxCell id="01GzuAP-HDkEaBXjoSyX-6" value="HEIGHT/WEIGHT/BMI" style="rounded=0;whiteSpace=wrap;html=1;" parent="1" vertex="1">
          <mxGeometry x="225" y="300" width="150" height="60" as="geometry" />
        </mxCell>
        <mxCell id="01GzuAP-HDkEaBXjoSyX-43" style="edgeStyle=orthogonalEdgeStyle;rounded=0;orthogonalLoop=1;jettySize=auto;html=1;entryX=0.5;entryY=0;entryDx=0;entryDy=0;" parent="1" source="01GzuAP-HDkEaBXjoSyX-7" target="01GzuAP-HDkEaBXjoSyX-1" edge="1">
          <mxGeometry relative="1" as="geometry" />
        </mxCell>
        <mxCell id="01GzuAP-HDkEaBXjoSyX-7" value="Current Medicines taking" style="rounded=0;whiteSpace=wrap;html=1;" parent="1" vertex="1">
          <mxGeometry x="240" y="90" width="120" height="60" as="geometry" />
        </mxCell>
        <mxCell id="01GzuAP-HDkEaBXjoSyX-36" style="edgeStyle=orthogonalEdgeStyle;rounded=0;orthogonalLoop=1;jettySize=auto;html=1;exitX=0.5;exitY=1;exitDx=0;exitDy=0;shape=link;" parent="1" source="01GzuAP-HDkEaBXjoSyX-8" target="01GzuAP-HDkEaBXjoSyX-32" edge="1">
          <mxGeometry relative="1" as="geometry" />
        </mxCell>
        <mxCell id="01GzuAP-HDkEaBXjoSyX-8" value="" style="rhombus;whiteSpace=wrap;html=1;" parent="1" vertex="1">
          <mxGeometry x="410" y="185" width="70" height="80" as="geometry" />
        </mxCell>
        <mxCell id="01GzuAP-HDkEaBXjoSyX-14" value="Form" style="rounded=0;whiteSpace=wrap;html=1;" parent="1" vertex="1">
          <mxGeometry x="660" y="290" width="120" height="60" as="geometry" />
        </mxCell>
        <mxCell id="01GzuAP-HDkEaBXjoSyX-15" value="" style="endArrow=none;html=1;rounded=0;exitX=1;exitY=0.5;exitDx=0;exitDy=0;entryX=0;entryY=0.5;entryDx=0;entryDy=0;shape=link;" parent="1" source="01GzuAP-HDkEaBXjoSyX-1" target="01GzuAP-HDkEaBXjoSyX-8" edge="1">
          <mxGeometry width="50" height="50" relative="1" as="geometry">
            <mxPoint x="440" y="180" as="sourcePoint" />
            <mxPoint x="490" y="130" as="targetPoint" />
          </mxGeometry>
        </mxCell>
        <mxCell id="01GzuAP-HDkEaBXjoSyX-18" value="" style="endArrow=none;html=1;rounded=0;entryX=0;entryY=0.5;entryDx=0;entryDy=0;exitX=1;exitY=0.5;exitDx=0;exitDy=0;shape=link;" parent="1" source="01GzuAP-HDkEaBXjoSyX-34" target="01GzuAP-HDkEaBXjoSyX-2" edge="1">
          <mxGeometry width="50" height="50" relative="1" as="geometry">
            <mxPoint x="600" y="310" as="sourcePoint" />
            <mxPoint x="490" y="130" as="targetPoint" />
            <Array as="points" />
          </mxGeometry>
        </mxCell>
        <mxCell id="01GzuAP-HDkEaBXjoSyX-42" style="edgeStyle=orthogonalEdgeStyle;rounded=0;orthogonalLoop=1;jettySize=auto;html=1;entryX=0;entryY=0.5;entryDx=0;entryDy=0;" parent="1" source="01GzuAP-HDkEaBXjoSyX-19" target="01GzuAP-HDkEaBXjoSyX-1" edge="1">
          <mxGeometry relative="1" as="geometry" />
        </mxCell>
        <mxCell id="01GzuAP-HDkEaBXjoSyX-19" value="Other Necessary Info" style="rounded=0;whiteSpace=wrap;html=1;" parent="1" vertex="1">
          <mxGeometry x="50" y="380" width="120" height="60" as="geometry" />
        </mxCell>
        <mxCell id="01GzuAP-HDkEaBXjoSyX-30" value="" style="endArrow=none;dashed=1;html=1;dashPattern=1 3;strokeWidth=2;rounded=0;" parent="1" edge="1">
          <mxGeometry width="50" height="50" relative="1" as="geometry">
            <mxPoint x="20" y="520" as="sourcePoint" />
            <mxPoint x="840" y="520" as="targetPoint" />
          </mxGeometry>
        </mxCell>
        <mxCell id="01GzuAP-HDkEaBXjoSyX-32" value="Form" style="rounded=0;whiteSpace=wrap;html=1;" parent="1" vertex="1">
          <mxGeometry x="450" y="400" width="120" height="60" as="geometry" />
        </mxCell>
        <mxCell id="01GzuAP-HDkEaBXjoSyX-45" style="edgeStyle=orthogonalEdgeStyle;rounded=0;orthogonalLoop=1;jettySize=auto;html=1;entryX=0;entryY=0.5;entryDx=0;entryDy=0;" parent="1" source="01GzuAP-HDkEaBXjoSyX-33" target="01GzuAP-HDkEaBXjoSyX-32" edge="1">
          <mxGeometry relative="1" as="geometry" />
        </mxCell>
        <mxCell id="01GzuAP-HDkEaBXjoSyX-33" value="Patient" style="rounded=0;whiteSpace=wrap;html=1;" parent="1" vertex="1">
          <mxGeometry x="300" y="410" width="90" height="40" as="geometry" />
        </mxCell>
        <mxCell id="01GzuAP-HDkEaBXjoSyX-46" style="edgeStyle=orthogonalEdgeStyle;rounded=0;orthogonalLoop=1;jettySize=auto;html=1;entryX=0.75;entryY=0;entryDx=0;entryDy=0;shape=link;" parent="1" source="01GzuAP-HDkEaBXjoSyX-34" target="01GzuAP-HDkEaBXjoSyX-32" edge="1">
          <mxGeometry relative="1" as="geometry" />
        </mxCell>
        <mxCell id="01GzuAP-HDkEaBXjoSyX-34" value="" style="rhombus;whiteSpace=wrap;html=1;" parent="1" vertex="1">
          <mxGeometry x="540" y="185" width="70" height="80" as="geometry" />
        </mxCell>
        <mxCell id="01GzuAP-HDkEaBXjoSyX-53" value="" style="edgeStyle=orthogonalEdgeStyle;rounded=0;orthogonalLoop=1;jettySize=auto;html=1;" parent="1" source="01GzuAP-HDkEaBXjoSyX-51" target="01GzuAP-HDkEaBXjoSyX-52" edge="1">
          <mxGeometry relative="1" as="geometry" />
        </mxCell>
        <mxCell id="01GzuAP-HDkEaBXjoSyX-51" value="Start" style="rounded=1;whiteSpace=wrap;html=1;" parent="1" vertex="1">
          <mxGeometry x="365" y="560" width="120" height="50" as="geometry" />
        </mxCell>
        <mxCell id="01GzuAP-HDkEaBXjoSyX-61" value="" style="edgeStyle=orthogonalEdgeStyle;rounded=0;orthogonalLoop=1;jettySize=auto;html=1;" parent="1" source="01GzuAP-HDkEaBXjoSyX-52" target="01GzuAP-HDkEaBXjoSyX-59" edge="1">
          <mxGeometry relative="1" as="geometry" />
        </mxCell>
        <mxCell id="01GzuAP-HDkEaBXjoSyX-63" value="" style="edgeStyle=orthogonalEdgeStyle;rounded=0;orthogonalLoop=1;jettySize=auto;html=1;" parent="1" source="01GzuAP-HDkEaBXjoSyX-52" target="01GzuAP-HDkEaBXjoSyX-60" edge="1">
          <mxGeometry relative="1" as="geometry" />
        </mxCell>
        <mxCell id="01GzuAP-HDkEaBXjoSyX-52" value="Admin or Patient" style="rhombus;whiteSpace=wrap;html=1;" parent="1" vertex="1">
          <mxGeometry x="375" y="640" width="100" height="120" as="geometry" />
        </mxCell>
        <mxCell id="01GzuAP-HDkEaBXjoSyX-66" style="edgeStyle=orthogonalEdgeStyle;rounded=0;orthogonalLoop=1;jettySize=auto;html=1;entryX=0.554;entryY=-0.04;entryDx=0;entryDy=0;entryPerimeter=0;" parent="1" source="01GzuAP-HDkEaBXjoSyX-54" target="01GzuAP-HDkEaBXjoSyX-69" edge="1">
          <mxGeometry relative="1" as="geometry">
            <mxPoint x="70" y="760" as="targetPoint" />
          </mxGeometry>
        </mxCell>
        <mxCell id="01GzuAP-HDkEaBXjoSyX-71" style="edgeStyle=orthogonalEdgeStyle;rounded=0;orthogonalLoop=1;jettySize=auto;html=1;" parent="1" source="01GzuAP-HDkEaBXjoSyX-54" edge="1">
          <mxGeometry relative="1" as="geometry">
            <mxPoint x="80" y="830" as="targetPoint" />
          </mxGeometry>
        </mxCell>
        <mxCell id="01GzuAP-HDkEaBXjoSyX-54" value="Login Page" style="rounded=0;whiteSpace=wrap;html=1;" parent="1" vertex="1">
          <mxGeometry x="80" y="670" width="120" height="60" as="geometry" />
        </mxCell>
        <mxCell id="01GzuAP-HDkEaBXjoSyX-74" style="edgeStyle=orthogonalEdgeStyle;rounded=0;orthogonalLoop=1;jettySize=auto;html=1;entryX=1.008;entryY=0.633;entryDx=0;entryDy=0;entryPerimeter=0;" parent="1" source="01GzuAP-HDkEaBXjoSyX-55" target="01GzuAP-HDkEaBXjoSyX-72" edge="1">
          <mxGeometry relative="1" as="geometry">
            <Array as="points">
              <mxPoint x="710" y="1018" />
            </Array>
          </mxGeometry>
        </mxCell>
        <mxCell id="01GzuAP-HDkEaBXjoSyX-55" value="Form Page" style="rounded=0;whiteSpace=wrap;html=1;" parent="1" vertex="1">
          <mxGeometry x="650" y="670" width="120" height="60" as="geometry" />
        </mxCell>
        <mxCell id="01GzuAP-HDkEaBXjoSyX-62" value="" style="edgeStyle=orthogonalEdgeStyle;rounded=0;orthogonalLoop=1;jettySize=auto;html=1;" parent="1" source="01GzuAP-HDkEaBXjoSyX-59" target="01GzuAP-HDkEaBXjoSyX-54" edge="1">
          <mxGeometry relative="1" as="geometry" />
        </mxCell>
        <mxCell id="01GzuAP-HDkEaBXjoSyX-59" value="Admin" style="shape=parallelogram;perimeter=parallelogramPerimeter;whiteSpace=wrap;html=1;fixedSize=1;" parent="1" vertex="1">
          <mxGeometry x="230" y="670" width="120" height="60" as="geometry" />
        </mxCell>
        <mxCell id="01GzuAP-HDkEaBXjoSyX-64" value="" style="edgeStyle=orthogonalEdgeStyle;rounded=0;orthogonalLoop=1;jettySize=auto;html=1;" parent="1" source="01GzuAP-HDkEaBXjoSyX-60" target="01GzuAP-HDkEaBXjoSyX-55" edge="1">
          <mxGeometry relative="1" as="geometry" />
        </mxCell>
        <mxCell id="01GzuAP-HDkEaBXjoSyX-60" value="Patient" style="shape=parallelogram;perimeter=parallelogramPerimeter;whiteSpace=wrap;html=1;fixedSize=1;" parent="1" vertex="1">
          <mxGeometry x="500" y="670" width="120" height="60" as="geometry" />
        </mxCell>
        <mxCell id="01GzuAP-HDkEaBXjoSyX-77" style="edgeStyle=orthogonalEdgeStyle;rounded=0;orthogonalLoop=1;jettySize=auto;html=1;" parent="1" source="01GzuAP-HDkEaBXjoSyX-69" target="01GzuAP-HDkEaBXjoSyX-78" edge="1">
          <mxGeometry relative="1" as="geometry">
            <mxPoint x="320" y="855" as="targetPoint" />
          </mxGeometry>
        </mxCell>
        <mxCell id="01GzuAP-HDkEaBXjoSyX-69" value="DataBase for Health Forms" style="shape=parallelogram;perimeter=parallelogramPerimeter;whiteSpace=wrap;html=1;fixedSize=1;" parent="1" vertex="1">
          <mxGeometry x="160" y="830" width="130" height="50" as="geometry" />
        </mxCell>
        <mxCell id="01GzuAP-HDkEaBXjoSyX-72" value="End" style="rounded=1;whiteSpace=wrap;html=1;" parent="1" vertex="1">
          <mxGeometry x="365" y="980" width="120" height="60" as="geometry" />
        </mxCell>
        <mxCell id="01GzuAP-HDkEaBXjoSyX-82" style="edgeStyle=orthogonalEdgeStyle;rounded=0;orthogonalLoop=1;jettySize=auto;html=1;entryX=0.5;entryY=0;entryDx=0;entryDy=0;" parent="1" source="01GzuAP-HDkEaBXjoSyX-78" target="01GzuAP-HDkEaBXjoSyX-72" edge="1">
          <mxGeometry relative="1" as="geometry" />
        </mxCell>
        <mxCell id="01GzuAP-HDkEaBXjoSyX-78" value="LogOut" style="rounded=0;whiteSpace=wrap;html=1;" parent="1" vertex="1">
          <mxGeometry x="370" y="827.5" width="110" height="55" as="geometry" />
        </mxCell>
        <mxCell id="01GzuAP-HDkEaBXjoSyX-81" style="edgeStyle=orthogonalEdgeStyle;rounded=0;orthogonalLoop=1;jettySize=auto;html=1;entryX=0.017;entryY=0.617;entryDx=0;entryDy=0;entryPerimeter=0;" parent="1" source="01GzuAP-HDkEaBXjoSyX-79" target="01GzuAP-HDkEaBXjoSyX-72" edge="1">
          <mxGeometry relative="1" as="geometry">
            <Array as="points">
              <mxPoint x="80" y="1017" />
            </Array>
          </mxGeometry>
        </mxCell>
        <mxCell id="01GzuAP-HDkEaBXjoSyX-79" value="LogOut" style="rounded=0;whiteSpace=wrap;html=1;" parent="1" vertex="1">
          <mxGeometry x="30" y="830" width="110" height="55" as="geometry" />
        </mxCell>
      </root>
    </mxGraphModel>
  </diagram>
</mxfile>
